<?xml version="1.0" encoding="utf-8"?>
<!-- Generator: Adobe Illustrator 26.0.1, SVG Export Plug-In . SVG Version: 6.00 Build 0)  -->
<svg version="1.1" id="Layer_1" xmlns="http://www.w3.org/2000/svg" xmlns:xlink="http://www.w3.org/1999/xlink" x="0px" y="0px"
	 viewBox="0 0 104.8 59" style="enable-background:new 0 0 104.8 59;" xml:space="preserve">
<style type="text/css">
	.st0{fill:url(#SVGID_1_);}
	.st1{fill:url(#SVGID_00000039129689569653184770000006439791874653996961_);}
	.st2{fill:url(#SVGID_00000138568357943838005830000005141890380034092194_);}
</style>
<linearGradient id="SVGID_1_" gradientUnits="userSpaceOnUse" x1="13.2618" y1="30.8539" x2="180.1675" y2="11.0887">
	<stop  offset="2.237672e-07" style="stop-color:#D49400"/>
	<stop  offset="1" style="stop-color:#FFDA88"/>
</linearGradient>
<polygon class="st0" points="62.7,26.3 38.5,50.5 6.3,18.3 16.8,7.8 38.5,29.5 52.2,15.8 "/>
<linearGradient id="SVGID_00000181064823888494954870000008355672632896765590_" gradientUnits="userSpaceOnUse" x1="14.3524" y1="40.0638" x2="181.2582" y2="20.2986">
	<stop  offset="2.237672e-07" style="stop-color:#D49400"/>
	<stop  offset="1" style="stop-color:#FFDA88"/>
</linearGradient>
<polygon style="fill:url(#SVGID_00000181064823888494954870000008355672632896765590_);" points="54.3,40.3 78.8,15.8 89.3,26.3 
	64.8,50.7 "/>
<linearGradient id="SVGID_00000129187142479471424010000003087790525201083281_" gradientUnits="userSpaceOnUse" x1="15.9179" y1="53.2834" x2="182.8237" y2="33.5182">
	<stop  offset="2.237672e-07" style="stop-color:#D49400"/>
	<stop  offset="1" style="stop-color:#FFDA88"/>
</linearGradient>
<path style="fill:url(#SVGID_00000129187142479471424010000003087790525201083281_);" d="M94.5,44.7c0,1.7-0.6,3.1-1.8,4.3
	c-1.2,1.2-2.6,1.8-4.3,1.8c-1.7,0-3.1-0.6-4.3-1.8c-1.2-1.2-1.8-2.6-1.8-4.3s0.6-3.1,1.8-4.3c1.2-1.2,2.6-1.8,4.3-1.8
	c1.7,0,3.1,0.6,4.3,1.8C93.9,41.6,94.5,43,94.5,44.7z"/>
</svg>
